<svg width="50" height="50" viewBox="0 0 50 50" fill="none" xmlns="http://www.w3.org/2000/svg">
<g clip-path="url(#clip0)">
<path d="M40.9604 16.6882C40.9604 24.3753 28.8221 38.6397 25.7166 42.1632C25.3359 42.5951 24.6639 42.5951 24.2833 42.1632C21.1778 38.6397 9.03955 24.3753 9.03955 16.6882C9.03955 7.87349 16.1853 0.727783 25 0.727783C33.8147 0.727783 40.9604 7.87349 40.9604 16.6882Z" fill="#B3E59F"/>
<path d="M33.795 3.36914C35.4636 5.89102 36.4362 8.91387 36.4362 12.1643C36.4362 20.2096 23.1408 35.4588 20.8197 38.0597C22.2951 39.8794 23.5448 41.3255 24.2833 42.1634C24.6639 42.5952 25.336 42.5952 25.7166 42.1634C28.822 38.6398 40.9603 24.3755 40.9603 16.6884C40.9603 11.124 38.1123 6.22568 33.795 3.36914Z" fill="#95D6A4"/>
<path d="M25 28.5717C31.7213 28.5717 37.17 23.123 37.17 16.4017C37.17 9.68039 31.7213 4.23169 25 4.23169C18.2787 4.23169 12.83 9.68039 12.83 16.4017C12.83 23.123 18.2787 28.5717 25 28.5717Z" fill="#F4FBFF"/>
<path d="M37.17 16.4018C37.17 14.9349 36.9103 13.5286 36.4346 12.2263C36.3995 16.447 32.7559 22.6176 28.9589 27.9127C33.7366 26.27 37.17 21.7372 37.17 16.4018Z" fill="#E4F6FF"/>
<path d="M33.2827 49.272H16.7173C15.4509 49.272 14.4243 48.2453 14.4243 46.979C14.4243 45.7126 15.451 44.686 16.7173 44.686H33.2827C34.5491 44.686 35.5757 45.7127 35.5757 46.979C35.5757 48.2453 34.549 49.272 33.2827 49.272Z" fill="#365E7D"/>
<path d="M34.3894 44.9707C34.3895 44.9803 34.3901 44.9897 34.3901 44.9993C34.3901 46.2657 33.3635 47.2923 32.0971 47.2923H15.5317C15.1303 47.2923 14.7531 47.1889 14.4249 47.0076C14.4404 48.2607 15.4605 49.272 16.7172 49.272H33.2826C34.549 49.272 35.5756 48.2453 35.5756 46.979C35.5757 46.1141 35.0966 45.3612 34.3894 44.9707Z" fill="#2B4D66"/>
<path d="M32.244 14.4534L25.3479 10.3407C25.1336 10.2129 24.8663 10.2129 24.652 10.3407L17.7559 14.4534V20.8497C17.7559 21.2249 18.0601 21.5291 18.4353 21.5291H31.5645C31.9397 21.5291 32.2439 21.2249 32.2439 20.8497V14.4534H32.244Z" fill="#E4F6FF"/>
<path d="M32.244 19.18H29.9354C29.6658 19.18 29.4471 18.9614 29.4471 18.6917V16.9841C29.4471 16.7145 29.6658 16.4958 29.9354 16.4958H32.244V19.18Z" fill="#BED8FB"/>
<path d="M20.0646 19.18H17.756V16.4958H20.0646C20.3342 16.4958 20.5529 16.7145 20.5529 16.9841V18.6917C20.5529 18.9614 20.3342 19.18 20.0646 19.18Z" fill="#BED8FB"/>
<path d="M26.37 16.4958H23.6299C23.4142 16.4958 23.2393 16.6708 23.2393 16.8865V21.5291H26.7606V16.8865C26.7606 16.6708 26.5857 16.4958 26.37 16.4958Z" fill="#2B4D66"/>
<path d="M25 43.2152C25.4829 43.2152 25.9432 43.0073 26.2628 42.6446C29.8815 38.5388 41.6884 24.5325 41.6884 16.6883C41.6884 7.48633 34.202 0 25 0C22.7454 0 20.5579 0.44209 18.4987 1.31396C18.1284 1.47061 17.9554 1.89785 18.1121 2.26807C18.2689 2.63848 18.6964 2.81133 19.0662 2.65459C20.9451 1.85918 22.9415 1.45586 25.0001 1.45586C33.3994 1.45586 40.2326 8.28906 40.2326 16.6883C40.2326 24.2112 27.6859 38.8282 25.1706 41.682C25.1114 41.7493 25.0384 41.7594 25.0001 41.7594C24.9618 41.7594 24.8889 41.7493 24.8296 41.682C22.3143 38.8283 9.7676 24.2113 9.7676 16.6883C9.7676 11.7065 12.2116 7.03018 16.3055 4.1792C16.6355 3.94941 16.7165 3.4958 16.4868 3.16582C16.2572 2.83584 15.8033 2.75469 15.4735 2.98447C10.9889 6.10762 8.31165 11.2305 8.31165 16.6883C8.31165 24.5327 20.1185 38.5389 23.7371 42.6446C24.0568 43.0073 24.517 43.2152 25 43.2152Z" fill="black"/>
<path d="M32.9755 26.539C36.1037 24.0746 37.8979 20.3797 37.8979 16.4018C37.8979 9.28984 32.1119 3.50391 25 3.50391C17.8881 3.50391 12.1021 9.28984 12.1021 16.4018C12.1021 23.5138 17.888 29.2998 24.9999 29.2998C26.8016 29.2998 28.5451 28.9353 30.1821 28.2163C30.5503 28.0546 30.7176 27.6252 30.556 27.2571C30.3942 26.889 29.9647 26.7217 29.5968 26.8833C28.1454 27.5207 26.5988 27.8439 24.9999 27.8439C18.6907 27.8439 13.5579 22.711 13.5579 16.4019C13.5579 10.0927 18.6907 4.95986 24.9999 4.95986C31.3091 4.95986 36.4419 10.0927 36.4419 16.4019C36.4419 19.9309 34.85 23.2089 32.0743 25.3954C31.7586 25.6442 31.7042 26.102 31.953 26.4178C32.202 26.7333 32.6595 26.7876 32.9755 26.539Z" fill="black"/>
<path d="M33.2826 43.958H16.7173C15.0516 43.958 13.6963 45.3132 13.6963 46.979C13.6963 48.6448 15.0516 49.9999 16.7173 49.9999H18.977C19.379 49.9999 19.7049 49.674 19.7049 49.272C19.7049 48.8699 19.379 48.544 18.977 48.544H16.7173C15.8543 48.544 15.1522 47.842 15.1522 46.979C15.1522 46.116 15.8543 45.414 16.7173 45.414H33.2826C34.1456 45.414 34.8477 46.116 34.8477 46.979C34.8477 47.842 34.1456 48.544 33.2826 48.544H22.4223C22.0202 48.544 21.6943 48.8699 21.6943 49.272C21.6943 49.674 22.0202 49.9999 22.4223 49.9999H33.2826C34.9483 49.9999 36.3036 48.6447 36.3036 46.9789C36.3036 45.3131 34.9483 43.958 33.2826 43.958Z" fill="black"/>
<path d="M18.4354 22.2569H31.5647C32.3407 22.2569 32.972 21.6255 32.972 20.8496L32.9766 15.7633H32.972V15.7406L33.1318 15.8359C33.4712 16.0399 33.9227 15.932 34.1298 15.5835C34.3358 15.2382 34.2228 14.7915 33.8775 14.5855L25.7208 9.71528C25.2761 9.45005 24.7236 9.45005 24.279 9.71528L16.1223 14.5855C15.777 14.7915 15.664 15.2383 15.87 15.5835C16.0758 15.9289 16.5225 16.0417 16.868 15.8359L17.0278 15.7406V15.7633H17.0233L17.0278 20.8496C17.028 21.6255 17.6594 22.2569 18.4354 22.2569ZM26.0328 20.801H23.9672V17.2237H26.0328V20.801ZM18.4839 14.8722L25 10.9861L31.5162 14.8723V15.7634H29.9355C29.2623 15.7634 28.7148 16.311 28.7148 16.9841V18.6917C28.7148 19.3649 29.2623 19.9125 29.9355 19.9125H31.5162V20.8011H27.4887V16.884C27.4887 16.2686 26.988 15.7678 26.3725 15.7678H23.6276C23.0122 15.7678 22.5114 16.2686 22.5114 16.884V20.8011H18.4839V19.9125H20.0646C20.7377 19.9125 21.2853 19.3649 21.2853 18.6917V16.9841C21.2853 16.311 20.7377 15.7634 20.0646 15.7634H18.4839V14.8722ZM31.5117 17.2282V18.4475H30.1795V17.2282H31.5117ZM18.4884 18.4475V17.2282H19.8205V18.4475H18.4884Z" fill="black"/>
</g>
<defs>
<clipPath id="clip0">
<rect width="50" height="50" fill="white"/>
</clipPath>
</defs>
</svg>
