<svg width="392" height="392" viewBox="0 0 392 392" fill="none" xmlns="http://www.w3.org/2000/svg">
<g clip-path="url(#clip0)">
<path d="M84.933 111.067C95.7578 111.067 104.533 102.292 104.533 91.4669C104.533 80.6421 95.7578 71.8669 84.933 71.8669C74.1082 71.8669 65.333 80.6421 65.333 91.4669C65.333 102.292 74.1082 111.067 84.933 111.067Z" fill="#02A9F4"/>
<path d="M300.533 320.133C311.358 320.133 320.133 311.358 320.133 300.533C320.133 289.708 311.358 280.933 300.533 280.933C289.708 280.933 280.933 289.708 280.933 300.533C280.933 311.358 289.708 320.133 300.533 320.133Z" fill="#02A9F4"/>
<path d="M104.533 320.133H65.333V372.4H104.533V320.133Z" fill="#3F51B5"/>
<path d="M13.0669 215.6H156.8C160.408 215.6 163.333 218.525 163.333 222.133V326.666C163.333 330.275 160.408 333.199 156.8 333.199H13.0669C9.4585 333.199 6.53381 330.275 6.53381 326.666V222.133C6.53305 218.525 9.4585 215.6 13.0669 215.6Z" fill="#607D8B"/>
<path d="M13.0669 215.6H137.2C140.808 215.6 143.733 218.525 143.733 222.133V326.666C143.733 330.275 140.808 333.199 137.2 333.199H13.0669C9.4585 333.199 6.53381 330.275 6.53381 326.666V222.133C6.53305 218.525 9.4585 215.6 13.0669 215.6Z" fill="#CFD8DC"/>
<path d="M137.2 372.4V385.467H32.6669V372.4C32.6883 365.192 38.5254 359.355 45.7338 359.333H124.134C131.341 359.355 137.179 365.192 137.2 372.4Z" fill="#283593"/>
<path d="M117.6 372.4V385.467H32.6669V372.4C32.6883 365.192 38.5254 359.355 45.7338 359.333H104.534C111.741 359.355 117.579 365.192 117.6 372.4Z" fill="#3F51B5"/>
<path d="M300.533 176.4C347.44 176.4 385.466 138.374 385.466 91.4669C385.466 44.5597 347.44 6.53384 300.533 6.53384C253.626 6.53384 215.6 44.5597 215.6 91.4669C215.6 138.374 253.626 176.4 300.533 176.4Z" fill="#02A9F4"/>
<path d="M61.2821 301.053C58.8421 300.102 56.0721 300.636 54.1618 302.428C53.57 303.051 53.103 303.782 52.7868 304.582C52.453 305.368 52.2761 306.212 52.2669 307.067C52.2501 308.805 52.933 310.476 54.1618 311.705C55.3907 312.934 57.062 313.617 58.8 313.6C59.6537 313.589 60.4966 313.412 61.2821 313.077C62.0891 312.775 62.8233 312.308 63.4389 311.706C65.9655 309.13 65.9655 305.005 63.4389 302.429C62.8241 301.823 62.0899 301.355 61.2821 301.053Z" fill="black"/>
<path d="M80.2949 302.428C77.7584 304.985 77.7699 309.112 80.3194 311.655C82.8697 314.199 86.9965 314.199 89.5468 311.655C92.097 309.112 92.1078 304.985 89.5712 302.428C86.9482 300.02 82.918 300.02 80.2949 302.428Z" fill="black"/>
<path d="M108.582 301.053C107.782 301.369 107.051 301.836 106.428 302.428C103.901 305.004 103.901 309.129 106.428 311.705C107.052 312.295 107.783 312.761 108.582 313.077C110.164 313.775 111.967 313.775 113.548 313.077C114.348 312.76 115.079 312.295 115.705 311.705C118.232 309.129 118.232 305.004 115.705 302.428C113.812 300.6 111.019 300.061 108.582 301.053Z" fill="black"/>
<path d="M387.276 62.648C374.891 25.2495 339.929 0 300.533 0C261.137 0 226.176 25.2503 213.79 62.6496C213.73 62.7813 213.693 62.916 213.642 63.0523C211.335 70.1443 209.909 77.4927 209.398 84.9331H110.139C106.978 72.6058 95.38 64.3607 82.699 65.4242C70.0172 66.4876 59.9553 76.5495 58.8919 89.2313C57.8284 101.913 66.0734 113.51 78.4008 116.672V209.066H13.0669C5.8532 209.075 0.00842187 214.92 0 222.133V326.666C0.00842187 333.879 5.8532 339.725 13.0669 339.733H58.8V352.8H45.7331C34.9133 352.811 26.1446 361.58 26.1331 372.4V385.467C26.1323 387.2 26.8206 388.862 28.0464 390.087C29.2714 391.312 30.9335 392.001 32.6669 392.001H137.2C138.933 392.002 140.595 391.313 141.821 390.087C143.046 388.862 143.734 387.2 143.734 385.467V372.4C143.722 361.58 134.954 352.811 124.134 352.8H111.067V339.733H156.8C164.013 339.725 169.859 333.88 169.867 326.666V307.066H275.328C278.489 319.393 290.087 327.638 302.769 326.575C315.451 325.512 325.512 315.45 326.576 302.768C327.639 290.086 319.394 278.489 307.067 275.327V182.602C343.822 179.93 375.392 155.48 387.175 120.562C387.214 120.473 387.239 120.383 387.274 120.293C393.524 101.733 393.576 81.647 387.425 63.0546C387.374 62.9175 387.337 62.7812 387.276 62.648ZM335.987 58.8H307.067V14.2973C319.766 18.777 330.569 35.9377 335.987 58.8ZM294 14.2973V58.8H265.081C270.499 35.9377 281.301 18.777 294 14.2973ZM294 71.8669V111.392H262.722C260.885 98.2825 260.871 84.9813 262.679 71.8669H294ZM265.16 124.458H294V168.636C281.362 164.178 270.604 147.158 265.16 124.458ZM249.493 111.392H224.797C221.275 98.4555 221.246 84.8167 224.714 71.8662H249.447C247.858 84.9951 247.874 98.2672 249.493 111.392ZM251.708 124.458C254.328 137.94 259.55 150.783 267.084 162.267C250.547 154.413 237.262 141.044 229.512 124.458H251.708ZM307.067 168.636V124.458H335.907C330.464 147.158 319.704 164.178 307.067 168.636ZM307.067 111.392V71.8669H338.388C340.196 84.9813 340.182 98.2825 338.345 111.392H307.067V111.392ZM351.621 71.8669H376.354C379.822 84.8175 379.793 98.4563 376.27 111.392H351.575C353.193 98.2672 353.209 84.9951 351.621 71.8669ZM371.712 58.8H349.425C346.82 45.2017 341.574 32.2458 333.983 20.6665C350.633 28.5716 363.984 42.0657 371.712 58.8ZM267.084 20.6665C259.493 32.2458 254.247 45.2017 251.642 58.8H229.355C237.083 42.0657 250.433 28.5716 267.084 20.6665ZM71.8669 91.4669C71.8669 84.2501 77.7171 78.4 84.9338 78.4C92.1506 78.4 98 84.2501 98 91.4669C98 98.6837 92.1499 104.534 84.9331 104.534C77.7201 104.525 71.8746 98.6799 71.8669 91.4669ZM130.667 372.4V378.933H39.2V372.4C39.2038 368.793 42.1262 365.87 45.7331 365.867H124.133C127.74 365.87 130.663 368.793 130.667 372.4ZM98 352.8H71.8669V339.733H98V352.8ZM104.533 326.667H13.0669V222.133H156.8L156.807 326.666H104.533V326.667ZM156.8 209.067H91.4669V116.672C100.614 114.289 107.756 107.146 110.139 98H209.398C209.924 105.587 211.401 113.077 213.794 120.295C213.828 120.385 213.853 120.473 213.892 120.561C225.674 155.479 257.245 179.929 294 182.602V275.327C284.853 277.71 277.711 284.853 275.328 293.999H169.867V222.132C169.859 214.92 164.013 209.075 156.8 209.067ZM313.6 300.533C313.6 307.75 307.75 313.6 300.533 313.6C293.316 313.6 287.466 307.75 287.466 300.533C287.466 293.316 293.316 287.466 300.533 287.466C307.747 287.475 313.592 293.32 313.6 300.533ZM333.983 162.267C341.516 150.783 346.739 137.94 349.359 124.458H371.555C363.805 141.044 350.52 154.414 333.983 162.267Z" fill="black"/>
</g>
<defs>
<clipPath id="clip0">
<rect width="392" height="392" fill="white"/>
</clipPath>
</defs>
</svg>
