<svg width="50" height="50" viewBox="0 0 50 50" fill="none" xmlns="http://www.w3.org/2000/svg">
<path d="M21.6135 37.6973L12.3031 28.3869C11.6385 27.7223 11.5415 26.6789 12.0718 25.9031L15.3372 21.1275C15.8676 20.3517 15.7704 19.3083 15.1059 18.6437L7.62339 11.1612C6.86059 10.3984 5.62378 10.3984 4.86099 11.1612C-0.32622 16.3484 -0.32622 24.7587 4.86099 29.9458L20.0544 45.1392C25.2416 50.3264 33.6519 50.3264 38.839 45.1392C39.6018 44.3764 39.6018 43.1396 38.839 42.3768L31.3565 34.8943C30.6919 34.2298 29.6485 34.1327 28.8727 34.6631L24.0971 37.9284C23.3214 38.4591 22.278 38.3619 21.6135 37.6973Z" fill="#78D2FA"/>
<path d="M38.839 42.3772L31.3565 34.8947C30.6919 34.2301 29.6485 34.133 28.8727 34.6634L25.1979 37.1761L35.563 47.5413C36.7423 46.9292 37.8494 46.1291 38.8389 45.1396C39.6018 44.3769 39.6018 43.14 38.839 42.3772Z" fill="#C8F5FF"/>
<path d="M12.8245 24.8026L15.3372 21.1278C15.8676 20.352 15.7704 19.3085 15.1059 18.644L7.62341 11.1615C6.86062 10.3987 5.6238 10.3987 4.86101 11.1615C3.87156 12.1509 3.07136 13.2579 2.45935 14.4373L12.8245 24.8026Z" fill="#C8F5FF"/>
<path d="M44.7743 8.71729H31.9799C29.6335 8.71729 27.7313 10.6194 27.7313 12.9658V26.2235C27.7313 28.5699 29.6335 30.4721 31.9799 30.4721H37.8712V34.2567L41.68 30.4721H44.7742C47.1206 30.4721 49.0227 28.5699 49.0227 26.2235V12.9658C49.0228 10.6194 47.1207 8.71729 44.7743 8.71729Z" fill="#91E696"/>
<path d="M43.242 23.1255L41.3999 22.782L35.7573 22.7833L33.922 23.1255C32.4247 23.4047 31.3391 24.7116 31.3391 26.2347V30.4178H37.7972V34.2571L42.0019 30.4178H45.4176C45.5549 30.4178 45.6906 30.4107 45.8249 30.3991V26.2347C45.825 24.7116 44.7394 23.4048 43.242 23.1255Z" fill="#7D9BFF"/>
<path d="M38.5821 14.9846C36.6773 14.9846 35.1331 16.5289 35.1331 18.4336V20.6781C35.1331 22.5829 36.6773 24.1271 38.5821 24.1271C40.4869 24.1271 42.0311 22.5829 42.0311 20.6781V18.4336C42.0311 16.5289 40.4869 14.9846 38.5821 14.9846Z" fill="#FFCDAC"/>
<path d="M12.6014 1.95332C18.1183 1.95332 22.6066 6.5581 22.6066 12.2185C22.6066 12.7578 23.044 13.1951 23.5833 13.1951C24.1225 13.1951 24.5599 12.7577 24.5599 12.2185C24.56 5.48115 19.1954 0 12.6014 0C12.0621 0 11.6248 0.437305 11.6248 0.97666C11.6248 1.51602 12.0621 1.95332 12.6014 1.95332Z" fill="black"/>
<path d="M12.5981 6.58696C15.6191 6.58696 18.0768 9.11323 18.0768 12.2184C18.0768 12.7578 18.5141 13.1951 19.0535 13.1951C19.5928 13.1951 20.0302 12.7577 20.0302 12.2184C20.0302 8.03608 16.6961 4.63354 12.5981 4.63354C12.0588 4.63354 11.6215 5.07085 11.6215 5.6102C11.6215 6.14956 12.0589 6.58696 12.5981 6.58696Z" fill="black"/>
<path d="M11.6404 9.87852C11.6404 10.4179 12.0778 10.8552 12.617 10.8552C13.3228 10.8552 13.8968 11.4532 13.8968 12.1884C13.8968 12.7277 14.3342 13.165 14.8735 13.165C15.4128 13.165 15.8501 12.7276 15.8501 12.1884C15.8501 10.3762 14.3997 8.90186 12.6169 8.90186C12.0777 8.90186 11.6404 9.33916 11.6404 9.87852Z" fill="black"/>
<path d="M44.7743 7.74072H42.6094C42.07 7.74072 41.6327 8.17803 41.6327 8.71738C41.6327 9.25674 42.07 9.69404 42.6094 9.69404H44.7743C46.5784 9.69404 48.0462 11.1618 48.0462 12.9659V26.2236C48.0462 27.2624 47.559 28.1889 46.8018 28.7887V26.2346C46.8018 24.242 45.3801 22.5306 43.4213 22.1652L42.7899 22.0476C42.9307 21.616 43.0078 21.156 43.0078 20.6779V18.4336C43.0078 15.9933 41.0224 14.0079 38.5821 14.0079C36.1418 14.0079 34.1565 15.9933 34.1565 18.4336V20.6779C34.1565 21.156 34.2337 21.6159 34.3744 22.0476L33.743 22.1652C31.7842 22.5305 30.3625 24.2419 30.3625 26.2346V29.0659C29.3754 28.502 28.7081 27.4396 28.7081 26.2236V12.9659C28.7081 11.1618 30.1759 9.69404 31.98 9.69404H34.3077C34.847 9.69404 35.2844 9.25664 35.2844 8.71738C35.2844 8.17803 34.8469 7.74072 34.3077 7.74072H31.98C29.0988 7.74072 26.7548 10.0848 26.7548 12.9659V26.2236C26.7548 29.1048 29.0988 31.4488 31.98 31.4488H36.8946V34.2569C36.8946 34.6514 37.1319 35.0072 37.4961 35.1586C37.6174 35.2091 37.7447 35.2336 37.8711 35.2336C38.1242 35.2336 38.3731 35.1352 38.5597 34.9498L42.0828 31.4488H44.7743C47.6554 31.4488 49.9995 29.1048 49.9995 26.2236V12.9659C49.9995 10.0847 47.6554 7.74072 44.7743 7.74072ZM36.1097 18.4336C36.1097 17.0703 37.2187 15.9612 38.582 15.9612C39.9453 15.9612 41.0544 17.0703 41.0544 18.4336V20.6779C41.0544 22.0412 39.9453 23.1503 38.582 23.1503C37.2187 23.1503 36.1097 22.0412 36.1097 20.6779V18.4336ZM41.68 29.4955C41.422 29.4955 41.1745 29.5976 40.9915 29.7793L38.8478 31.9096V30.4721C38.8478 29.9327 38.4104 29.4954 37.8712 29.4954H32.3158V26.2345C32.3158 25.1822 33.0667 24.2783 34.1011 24.0854L35.4779 23.8286C36.2773 24.6164 37.3736 25.1035 38.582 25.1035C39.7904 25.1035 40.8868 24.6162 41.6862 23.8285L43.0632 24.0853C44.0976 24.2782 44.8484 25.182 44.8484 26.2344V29.4934C44.8237 29.4939 44.7992 29.4952 44.7743 29.4952H41.6803V29.4955H41.68Z" fill="black"/>
<path d="M37.9864 9.69429C38.2433 9.69429 38.4953 9.5898 38.6769 9.40815C38.8585 9.22554 38.9631 8.97456 38.9631 8.71763C38.9631 8.45981 38.8586 8.20874 38.6769 8.0271C38.4953 7.84448 38.2434 7.74097 37.9864 7.74097C37.7296 7.74097 37.4775 7.84448 37.2959 8.0271C37.1143 8.20786 37.0098 8.45981 37.0098 8.71763C37.0098 8.97446 37.1142 9.22651 37.2959 9.40815C37.4776 9.5897 37.7296 9.69429 37.9864 9.69429Z" fill="black"/>
<path d="M17.4616 32.5688C17.2048 32.5688 16.9528 32.6733 16.7712 32.855C16.5896 33.0366 16.485 33.2887 16.485 33.5455C16.485 33.8033 16.5895 34.0544 16.7712 34.236C16.9537 34.4187 17.2047 34.523 17.4616 34.523C17.7185 34.523 17.9705 34.4187 18.1522 34.236C18.3348 34.0544 18.4383 33.8033 18.4383 33.5455C18.4383 33.2887 18.3348 33.0366 18.1522 32.855C17.9704 32.6733 17.7196 32.5688 17.4616 32.5688Z" fill="black"/>
<path d="M32.0472 34.204C31.0511 33.2079 29.4841 33.0622 28.3216 33.8572L23.5461 37.1227C23.1585 37.3876 22.6364 37.3391 22.3043 37.0069L20.7251 35.4276C20.3438 35.0465 19.7255 35.0464 19.3437 35.4276C18.9624 35.809 18.9624 36.4273 19.3437 36.809L20.9229 38.3883C21.919 39.3843 23.4858 39.5303 24.6485 38.7351L29.4241 35.4697C29.8115 35.2048 30.3338 35.2532 30.6659 35.5854L38.1484 43.0679C38.5292 43.4485 38.5291 44.0683 38.1483 44.4492C33.3503 49.2473 25.5431 49.2473 20.7451 44.4492L5.55161 29.2555C3.2272 26.9312 1.94732 23.8409 1.94732 20.5538C1.94732 17.2667 3.2273 14.1764 5.55171 11.852C5.73618 11.6675 5.9813 11.566 6.24224 11.566C6.50318 11.566 6.74849 11.6676 6.93286 11.8521L14.4153 19.3346C14.7472 19.6665 14.7959 20.1889 14.531 20.5764L11.2658 25.352C10.4706 26.5146 10.6165 28.0813 11.6125 29.0775L13.9863 31.4514C14.3677 31.8326 14.986 31.8326 15.3676 31.4514C15.749 31.07 15.749 30.4516 15.3676 30.07L12.9938 27.6962C12.6619 27.3643 12.6132 26.842 12.8782 26.4545L16.1435 21.6789C16.9385 20.5162 16.7926 18.9493 15.7966 17.9533L8.31421 10.4708C7.17183 9.32842 5.31294 9.32842 4.17036 10.4708C-1.38931 16.0306 -1.38931 25.077 4.17036 30.6367L19.3639 45.8302C22.1438 48.6101 25.7953 50 29.4467 50C33.0983 49.9999 36.7498 48.61 39.5297 45.8302C40.6719 44.6878 40.6719 42.829 39.5297 41.6864L32.0472 34.204Z" fill="black"/>
<path d="M12.4663 25.6829C12.2163 25.6829 11.9664 25.5875 11.7757 25.3969L5.8551 19.4764C5.47375 19.095 5.47375 18.4766 5.8551 18.095C6.23655 17.7138 6.85481 17.7138 7.23645 18.095L13.157 24.0155C13.5383 24.3969 13.5383 25.0153 13.157 25.3969C12.9662 25.5875 12.7162 25.6829 12.4663 25.6829Z" fill="black"/>
<path d="M35.1258 48.3424C34.8758 48.3424 34.6259 48.247 34.4352 48.0563L28.2058 41.827C27.8245 41.4456 27.8245 40.8271 28.2058 40.4456C28.5873 40.0644 29.2055 40.0644 29.5872 40.4456L35.8165 46.675C36.1979 47.0563 36.1979 47.6748 35.8165 48.0563C35.6256 48.247 35.3757 48.3424 35.1258 48.3424Z" fill="black"/>
</svg>
